<svg xmlns="http://www.w3.org/2000/svg" version="1.1" xmlns:xlink="http://www.w3.org/1999/xlink" xmlns:svgjs="http://svgjs.dev/svgjs" width="2000" height="454" viewBox="0 0 2000 454"><g transform="matrix(1,0,0,1,-1.2121211465763508,0.4043919494720001)"><svg viewBox="0 0 396 90" data-background-color="#ffffff" preserveAspectRatio="xMidYMid meet" height="454" width="2000" xmlns="http://www.w3.org/2000/svg" xmlns:xlink="http://www.w3.org/1999/xlink"><g id="tight-bounds" transform="matrix(1,0,0,1,0.24000001297793006,-0.08016580496141046)"><svg viewBox="0 0 395.52 90.16033160992282" height="90.16033160992282" width="395.52"><g><svg viewBox="0 0 528.3302809217486 120.43495481257213" height="90.16033160992282" width="395.52"><g transform="matrix(1,0,0,1,0,16.644773060203534)"><svg viewBox="0 0 395.52 87.14540869216506" height="87.14540869216506" width="395.52"><g id="textblocktransform"><svg viewBox="0 0 395.52 87.14540869216506" height="87.14540869216506" width="395.52" id="textblock"><g><svg viewBox="0 0 395.52 52.420941176470585" height="52.420941176470585" width="395.52"><g transform="matrix(1,0,0,1,0,0)"><svg width="395.52" viewBox="0.6000000238418579 -35.650001525878906 271.97998046875 36.05000305175781" height="52.420941176470585" data-palette-color="#001f3f"><path d="M17 0L12.85 0 12.85-31.75 0.6-31.75 0.6-35.25 29.3-35.25 29.3-31.75 17-31.75 17 0ZM56.55 0L34.25 0 34.25-35.25 56.55-35.25 56.55-31.85 38.3-31.85 38.3-19.6 55.55-19.6 55.55-16.2 38.3-16.2 38.3-3.4 56.55-3.4 56.55 0ZM78.2 0.4Q73.2 0.4 69.5-1.78 65.8-3.95 63.82-8.03 61.84-12.1 61.84-17.65L61.84-17.65Q61.84-23.2 63.82-27.25 65.8-31.3 69.5-33.48 73.2-35.65 78.2-35.65L78.2-35.65Q81.84-35.65 84.9-34.52 87.95-33.4 90.2-31.2L90.2-31.2 88.65-28.05Q86.09-30.2 83.65-31.15 81.2-32.1 78.25-32.1L78.25-32.1Q72.45-32.1 69.27-28.33 66.09-24.55 66.09-17.65L66.09-17.65Q66.09-10.7 69.27-6.93 72.45-3.15 78.25-3.15L78.25-3.15Q81.2-3.15 83.65-4.1 86.09-5.05 88.65-7.2L88.65-7.2 90.2-4.05Q87.95-1.85 84.9-0.73 81.84 0.4 78.2 0.4L78.2 0.4ZM122.14-19.65L122.14-35.25 126.19-35.25 126.19 0 122.14 0 122.14-16.15 101.04-16.15 101.04 0 96.99 0 96.99-35.25 101.04-35.25 101.04-19.65 122.14-19.65ZM169.54 0L147.79 0 147.79-35.25 151.89-35.25 151.89-3.5 169.54-3.5 169.54 0ZM187.74 0.4Q182.84 0.4 179.21-1.8 175.59-4 173.64-8.05 171.69-12.1 171.69-17.6L171.69-17.6Q171.69-23.15 173.61-27.23 175.54-31.3 179.16-33.48 182.79-35.65 187.74-35.65L187.74-35.65Q192.69-35.65 196.31-33.48 199.94-31.3 201.86-27.23 203.79-23.15 203.79-17.65L203.79-17.65Q203.79-12.15 201.84-8.08 199.89-4 196.26-1.8 192.64 0.4 187.74 0.4L187.74 0.4ZM187.74-3.1Q193.34-3.1 196.46-6.88 199.59-10.65 199.59-17.65L199.59-17.65Q199.59-24.65 196.49-28.4 193.39-32.15 187.74-32.15L187.74-32.15Q182.14-32.15 179.01-28.38 175.89-24.6 175.89-17.65L175.89-17.65Q175.89-10.7 179.01-6.9 182.14-3.1 187.74-3.1L187.74-3.1ZM226.23 0.4Q221.23 0.4 217.53-1.78 213.83-3.95 211.86-8.03 209.88-12.1 209.88-17.65L209.88-17.65Q209.88-23.2 211.86-27.25 213.83-31.3 217.53-33.48 221.23-35.65 226.23-35.65L226.23-35.65Q229.88-35.65 232.93-34.52 235.98-33.4 238.23-31.2L238.23-31.2 236.68-28.05Q234.13-30.2 231.68-31.15 229.23-32.1 226.28-32.1L226.28-32.1Q220.48-32.1 217.31-28.33 214.13-24.55 214.13-17.65L214.13-17.65Q214.13-10.7 217.31-6.93 220.48-3.15 226.28-3.15L226.28-3.15Q229.23-3.15 231.68-4.1 234.13-5.05 236.68-7.2L236.68-7.2 238.23-4.05Q235.98-1.85 232.93-0.73 229.88 0.4 226.23 0.4L226.23 0.4ZM253.23-18.1L272.58 0 267.28 0 249.13-16.75 249.13 0 245.03 0 245.03-35.25 249.13-35.25 249.13-19.05 266.43-35.25 271.63-35.25 253.23-18.1Z" opacity="1" transform="matrix(1,0,0,1,0,0)" fill="#ffffff" class="wordmark-text-0" data-fill-palette-color="primary" id="text-0"></path></svg></g></svg></g><g transform="matrix(1,0,0,1,163.310208,64.79626728564705)"><svg viewBox="0 0 232.209792 22.34914140651801" height="22.34914140651801" width="232.209792"><g transform="matrix(1,0,0,1,0,0)"><svg width="232.209792" viewBox="1.7000000476837158 -39.650001525878906 524.6300048828125 50.5" height="22.34914140651801" data-palette-color="#aaaaaa"><path d="M12.35-27.15Q14.5-27.15 16.25-26.43 18-25.7 19.6-24.15L19.6-24.15 16.95-20.65Q15.85-21.55 14.88-21.98 13.9-22.4 12.75-22.4L12.75-22.4Q10.5-22.4 9.35-20.28 8.2-18.15 8.2-13.1L8.2-13.1Q8.2-8.2 9.38-6.2 10.55-4.2 12.75-4.2L12.75-4.2Q13.85-4.2 14.75-4.6 15.65-5 16.85-5.85L16.85-5.85 19.6-2.3Q16.4 0.75 12.45 0.75L12.45 0.75Q7.35 0.75 4.53-2.73 1.7-6.2 1.7-13L1.7-13Q1.7-17.4 3-20.6 4.3-23.8 6.73-25.48 9.15-27.15 12.35-27.15L12.35-27.15ZM41.3-26.45L34.3 0.1Q33 4.9 30.1 7.65 27.2 10.4 22.35 10.85L22.35 10.85 21.65 6.5Q24.8 5.85 26.37 4.42 27.95 3 28.85 0L28.85 0 26.55 0 19.85-26.45 26.1-26.45 30.5-4.1 35.2-26.45 41.3-26.45ZM56.34-27.15Q60.2-27.15 62.25-23.65 64.3-20.15 64.3-13.25L64.3-13.25Q64.3-6.75 62-3 59.7 0.75 55.7 0.75L55.7 0.75Q53.95 0.75 52.49-0.13 51.05-1 49.99-2.55L49.99-2.55 49.64 0 44.2 0 44.2-37 50.34-37.65 50.34-23.6Q51.39-25.3 52.92-26.23 54.45-27.15 56.34-27.15L56.34-27.15ZM54.05-3.9Q55.89-3.9 56.92-6 57.95-8.1 57.95-13.25L57.95-13.25Q57.95-18.6 57.02-20.58 56.09-22.55 54.39-22.55L54.39-22.55Q53.24-22.55 52.2-21.6 51.14-20.65 50.34-19.1L50.34-19.1 50.34-6.7Q50.99-5.45 51.97-4.67 52.95-3.9 54.05-3.9L54.05-3.9ZM87.74-13.85Q87.74-13.4 87.59-11.3L87.59-11.3 73.94-11.3Q74.14-7.2 75.37-5.58 76.59-3.95 78.84-3.95L78.84-3.95Q80.39-3.95 81.64-4.48 82.89-5 84.34-6.15L84.34-6.15 86.89-2.65Q83.39 0.75 78.49 0.75L78.49 0.75Q73.29 0.75 70.52-2.85 67.74-6.45 67.74-13L67.74-13Q67.74-19.55 70.39-23.35 73.04-27.15 77.89-27.15L77.89-27.15Q82.54-27.15 85.14-23.78 87.74-20.4 87.74-13.85L87.74-13.85ZM81.74-15.3L81.74-15.65Q81.74-19.4 80.84-21.13 79.94-22.85 77.94-22.85L77.94-22.85Q76.09-22.85 75.12-21.18 74.14-19.5 73.94-15.3L73.94-15.3 81.74-15.3ZM103.69-27.1Q104.84-27.1 105.74-26.75L105.74-26.75 104.74-20.85Q103.74-21.1 102.89-21.1L102.89-21.1Q100.99-21.1 99.89-19.45 98.79-17.8 98.19-14.55L98.19-14.55 98.19 0 92.04 0 92.04-26.45 97.39-26.45 97.84-21.85Q99.69-27.1 103.69-27.1L103.69-27.1ZM125.79-27.15Q130.49-27.15 133.74-24.05L133.74-24.05 131.39-20.7Q129.99-21.7 128.74-22.2 127.49-22.7 126.19-22.7L126.19-22.7Q124.74-22.7 123.91-21.93 123.09-21.15 123.09-19.8L123.09-19.8Q123.09-18.45 124.01-17.63 124.94-16.8 127.74-15.7L127.74-15.7Q131.19-14.35 132.84-12.5 134.49-10.65 134.49-7.55L134.49-7.55Q134.49-3.7 131.78-1.48 129.09 0.75 124.94 0.75L124.94 0.75Q122.24 0.75 119.96-0.23 117.69-1.2 115.99-2.95L115.99-2.95 118.99-6.25Q121.79-3.8 124.69-3.8L124.69-3.8Q126.34-3.8 127.29-4.67 128.24-5.55 128.24-7.1L128.24-7.1Q128.24-8.25 127.84-8.97 127.44-9.7 126.44-10.33 125.44-10.95 123.44-11.7L123.44-11.7Q119.99-13.05 118.51-14.85 117.04-16.65 117.04-19.45L117.04-19.45Q117.04-22.8 119.41-24.98 121.79-27.15 125.79-27.15L125.79-27.15ZM157.18-13.85Q157.18-13.4 157.03-11.3L157.03-11.3 143.38-11.3Q143.58-7.2 144.81-5.58 146.03-3.95 148.28-3.95L148.28-3.95Q149.83-3.95 151.08-4.48 152.33-5 153.78-6.15L153.78-6.15 156.33-2.65Q152.83 0.75 147.93 0.75L147.93 0.75Q142.73 0.75 139.96-2.85 137.18-6.45 137.18-13L137.18-13Q137.18-19.55 139.83-23.35 142.48-27.15 147.33-27.15L147.33-27.15Q151.98-27.15 154.58-23.78 157.18-20.4 157.18-13.85L157.18-13.85ZM151.18-15.3L151.18-15.65Q151.18-19.4 150.28-21.13 149.38-22.85 147.38-22.85L147.38-22.85Q145.53-22.85 144.56-21.18 143.58-19.5 143.38-15.3L143.38-15.3 151.18-15.3ZM170.98-27.15Q173.13-27.15 174.88-26.43 176.63-25.7 178.23-24.15L178.23-24.15 175.58-20.65Q174.48-21.55 173.51-21.98 172.53-22.4 171.38-22.4L171.38-22.4Q169.13-22.4 167.98-20.28 166.83-18.15 166.83-13.1L166.83-13.1Q166.83-8.2 168.01-6.2 169.18-4.2 171.38-4.2L171.38-4.2Q172.48-4.2 173.38-4.6 174.28-5 175.48-5.85L175.48-5.85 178.23-2.3Q175.03 0.75 171.08 0.75L171.08 0.75Q165.98 0.75 163.16-2.73 160.33-6.2 160.33-13L160.33-13Q160.33-17.4 161.63-20.6 162.93-23.8 165.36-25.48 167.78-27.15 170.98-27.15L170.98-27.15ZM199.43-26.45L199.43 0 194.08 0 193.78-3.35Q192.53-1.3 190.98-0.28 189.43 0.75 187.38 0.75L187.38 0.75Q184.48 0.75 182.8-1.3 181.13-3.35 181.13-6.65L181.13-6.65 181.13-26.45 187.28-26.45 187.28-7Q187.28-3.9 189.38-3.9L189.38-3.9Q190.58-3.9 191.53-4.83 192.48-5.75 193.28-7.45L193.28-7.45 193.28-26.45 199.43-26.45ZM216.78-27.1Q217.93-27.1 218.83-26.75L218.83-26.75 217.83-20.85Q216.83-21.1 215.98-21.1L215.98-21.1Q214.08-21.1 212.98-19.45 211.88-17.8 211.28-14.55L211.28-14.55 211.28 0 205.13 0 205.13-26.45 210.48-26.45 210.93-21.85Q212.78-27.1 216.78-27.1L216.78-27.1ZM221.67-26.45L227.82-26.45 227.82 0 221.67 0 221.67-26.45ZM224.72-39.65Q226.37-39.65 227.4-38.6 228.42-37.55 228.42-35.9L228.42-35.9Q228.42-34.3 227.4-33.25 226.37-32.2 224.72-32.2L224.72-32.2Q223.07-32.2 222.05-33.25 221.02-34.3 221.02-35.9L221.02-35.9Q221.02-37.55 222.05-38.6 223.07-39.65 224.72-39.65L224.72-39.65ZM244.67-5L246.82-1.2Q244.37 0.75 241.07 0.75L241.07 0.75Q237.62 0.75 235.82-1.23 234.02-3.2 234.02-6.6L234.02-6.6 234.02-22 230.92-22 230.92-26.45 234.02-26.45 234.02-32.3 240.17-33.05 240.17-26.45 245.17-26.45 244.57-22 240.17-22 240.17-6.6Q240.17-4.2 242.22-4.2L242.22-4.2Q242.87-4.2 243.37-4.38 243.87-4.55 244.67-5L244.67-5ZM268.02-26.45L261.02 0.1Q259.72 4.9 256.82 7.65 253.92 10.4 249.07 10.85L249.07 10.85 248.37 6.5Q251.52 5.85 253.09 4.42 254.67 3 255.57 0L255.57 0 253.27 0 246.57-26.45 252.82-26.45 257.22-4.1 261.92-26.45 268.02-26.45ZM299.41-26.45L292.41 0.1Q291.11 4.9 288.21 7.65 285.31 10.4 280.46 10.85L280.46 10.85 279.76 6.5Q282.91 5.85 284.49 4.42 286.06 3 286.96 0L286.96 0 284.66 0 277.96-26.45 284.21-26.45 288.61-4.1 293.31-26.45 299.41-26.45ZM311.71-27.15Q316.71-27.15 319.49-23.65 322.26-20.15 322.26-13.25L322.26-13.25Q322.26-6.65 319.46-2.95 316.66 0.75 311.71 0.75L311.71 0.75Q306.76 0.75 303.96-2.88 301.16-6.5 301.16-13.25L301.16-13.25Q301.16-19.95 303.96-23.55 306.76-27.15 311.71-27.15L311.71-27.15ZM311.71-22.5Q309.56-22.5 308.56-20.38 307.56-18.25 307.56-13.25L307.56-13.25Q307.56-8.2 308.56-6.08 309.56-3.95 311.71-3.95L311.71-3.95Q313.86-3.95 314.86-6.08 315.86-8.2 315.86-13.25L315.86-13.25Q315.86-18.3 314.86-20.4 313.86-22.5 311.71-22.5L311.71-22.5ZM344.96-26.45L344.96 0 339.61 0 339.31-3.35Q338.06-1.3 336.51-0.28 334.96 0.75 332.91 0.75L332.91 0.75Q330.01 0.75 328.33-1.3 326.66-3.35 326.66-6.65L326.66-6.65 326.66-26.45 332.81-26.45 332.81-7Q332.81-3.9 334.91-3.9L334.91-3.9Q336.11-3.9 337.06-4.83 338.01-5.75 338.81-7.45L338.81-7.45 338.81-26.45 344.96-26.45ZM370-27.15Q372.15-27.15 373.9-26.43 375.65-25.7 377.25-24.15L377.25-24.15 374.6-20.65Q373.5-21.55 372.53-21.98 371.55-22.4 370.4-22.4L370.4-22.4Q368.15-22.4 367-20.28 365.85-18.15 365.85-13.1L365.85-13.1Q365.85-8.2 367.03-6.2 368.2-4.2 370.4-4.2L370.4-4.2Q371.5-4.2 372.4-4.6 373.3-5 374.5-5.85L374.5-5.85 377.25-2.3Q374.05 0.75 370.1 0.75L370.1 0.75Q365 0.75 362.18-2.73 359.35-6.2 359.35-13L359.35-13Q359.35-17.4 360.65-20.6 361.95-23.8 364.38-25.48 366.8-27.15 370-27.15L370-27.15ZM397.2-6.4Q397.2-5.1 397.55-4.48 397.9-3.85 398.7-3.45L398.7-3.45 397.45 0.65Q395.4 0.4 394.18-0.45 392.95-1.3 392.35-3.05L392.35-3.05Q390.05 0.75 385.9 0.75L385.9 0.75Q382.6 0.75 380.65-1.48 378.7-3.7 378.7-7.4L378.7-7.4Q378.7-11.7 381.38-13.95 384.05-16.2 389.15-16.2L389.15-16.2 391.2-16.2 391.2-18.05Q391.2-20.55 390.33-21.58 389.45-22.6 387.5-22.6L387.5-22.6Q385.15-22.6 381.65-21.3L381.65-21.3 380.25-25.3Q382.25-26.2 384.4-26.68 386.55-27.15 388.5-27.15L388.5-27.15Q397.2-27.15 397.2-18.35L397.2-18.35 397.2-6.4ZM387.55-3.7Q389.95-3.7 391.2-7L391.2-7 391.2-12.55 389.75-12.55Q387.2-12.55 386.03-11.4 384.85-10.25 384.85-7.85L384.85-7.85Q384.85-5.8 385.55-4.75 386.25-3.7 387.55-3.7L387.55-3.7ZM415.35-27.15Q418.2-27.15 419.85-25.1 421.5-23.05 421.5-19.6L421.5-19.6 421.5 0 415.35 0 415.35-18.9Q415.35-20.8 414.82-21.63 414.3-22.45 413.3-22.45L413.3-22.45Q411.2-22.45 409.15-18.5L409.15-18.5 409.15 0 403 0 403-26.45 408.35-26.45 408.8-23Q410.15-25.1 411.67-26.13 413.2-27.15 415.35-27.15L415.35-27.15ZM448.04-5L450.19-1.2Q447.74 0.75 444.44 0.75L444.44 0.75Q440.99 0.75 439.19-1.23 437.39-3.2 437.39-6.6L437.39-6.6 437.39-22 434.29-22 434.29-26.45 437.39-26.45 437.39-32.3 443.54-33.05 443.54-26.45 448.54-26.45 447.94-22 443.54-22 443.54-6.6Q443.54-4.2 445.59-4.2L445.59-4.2Q446.24-4.2 446.74-4.38 447.24-4.55 448.04-5L448.04-5ZM464.39-27.1Q465.54-27.1 466.44-26.75L466.44-26.75 465.44-20.85Q464.44-21.1 463.59-21.1L463.59-21.1Q461.69-21.1 460.59-19.45 459.49-17.8 458.89-14.55L458.89-14.55 458.89 0 452.74 0 452.74-26.45 458.09-26.45 458.54-21.85Q460.39-27.1 464.39-27.1L464.39-27.1ZM487.44-26.45L487.44 0 482.09 0 481.79-3.35Q480.54-1.3 478.99-0.28 477.44 0.75 475.39 0.75L475.39 0.75Q472.49 0.75 470.81-1.3 469.14-3.35 469.14-6.65L469.14-6.65 469.14-26.45 475.29-26.45 475.29-7Q475.29-3.9 477.39-3.9L477.39-3.9Q478.59-3.9 479.54-4.83 480.49-5.75 481.29-7.45L481.29-7.45 481.29-26.45 487.44-26.45ZM500.49-27.15Q505.19-27.15 508.44-24.05L508.44-24.05 506.09-20.7Q504.69-21.7 503.44-22.2 502.19-22.7 500.89-22.7L500.89-22.7Q499.44-22.7 498.61-21.93 497.79-21.15 497.79-19.8L497.79-19.8Q497.79-18.45 498.71-17.63 499.64-16.8 502.44-15.7L502.44-15.7Q505.89-14.35 507.54-12.5 509.19-10.65 509.19-7.55L509.19-7.55Q509.19-3.7 506.49-1.48 503.79 0.75 499.64 0.75L499.64 0.75Q496.94 0.75 494.66-0.23 492.39-1.2 490.69-2.95L490.69-2.95 493.69-6.25Q496.49-3.8 499.39-3.8L499.39-3.8Q501.04-3.8 501.99-4.67 502.94-5.55 502.94-7.1L502.94-7.1Q502.94-8.25 502.54-8.97 502.14-9.7 501.14-10.33 500.14-10.95 498.14-11.7L498.14-11.7Q494.69-13.05 493.21-14.85 491.74-16.65 491.74-19.45L491.74-19.45Q491.74-22.8 494.11-24.98 496.49-27.15 500.49-27.15L500.49-27.15ZM524.18-5L526.33-1.2Q523.88 0.75 520.58 0.75L520.58 0.75Q517.13 0.75 515.33-1.23 513.53-3.2 513.53-6.6L513.53-6.6 513.53-22 510.43-22 510.43-26.45 513.53-26.45 513.53-32.3 519.68-33.05 519.68-26.45 524.68-26.45 524.08-22 519.68-22 519.68-6.6Q519.68-4.2 521.73-4.2L521.73-4.2Q522.38-4.2 522.88-4.38 523.38-4.55 524.18-5L524.18-5Z" opacity="1" transform="matrix(1,0,0,1,0,0)" fill="#ffffff" class="slogan-text-1" data-fill-palette-color="secondary" id="text-1"></path></svg></g></svg></g></svg></g></svg></g><g transform="matrix(1,0,0,1,407.89532610917644,0)"><svg viewBox="0 0 120.43495481257213 120.43495481257213" height="120.43495481257213" width="120.43495481257213"><g data-palette-color="#39cccc"><rect width="32.91888764876972" height="120.43495481257213" fill="#ffffff" stroke="transparent" data-fill-palette-color="accent" x="0" fill-opacity="1"></rect><rect width="32.91888764876972" height="120.43495481257213" fill="#ffffff" stroke="transparent" data-fill-palette-color="accent" x="40.14498493752404" fill-opacity="0.75"></rect><rect width="32.91888764876972" height="120.43495481257213" fill="#ffffff" stroke="transparent" data-fill-palette-color="accent" x="80.28996987504809" fill-opacity="0.5"></rect></g></svg></g></svg></g><defs></defs></svg><rect width="395.52" height="90.16033160992282" fill="none" stroke="none" visibility="hidden"></rect></g></svg></g></svg>